<svg width="150" height="152" viewBox="0 0 150 152" fill="none" xmlns="http://www.w3.org/2000/svg">
<rect x="28.1375" y="117.165" width="100.515" height="34.5329" fill="#7551B0"/>
<rect x="55.887" width="45.6327" height="120.248" rx="22.8163" fill="#7551B0"/>
<ellipse cx="79.9047" cy="93.9387" rx="44.0911" ry="39.4661" fill="#7551B0"/>
<rect x="22.5874" y="108.532" width="112.232" height="34.5329" fill="#7551B0"/>
<ellipse cx="35.9199" cy="76.785" rx="16.9581" ry="24.358" transform="rotate(19.5505 35.9199 76.785)" fill="#7551B0"/>
<path d="M52.5037 63.0122C50.0662 84.18 40.2673 101.257 30.6045 100.144C20.9416 99.0314 13.4674 88.7999 17.5115 58.9827C25.8124 27.1336 43.6561 24.985 53.319 26.0977C62.9818 27.2104 54.9413 41.8443 52.5037 63.0122Z" fill="#7551B0"/>
<ellipse cx="17.2406" cy="24.358" rx="17.2406" ry="24.358" transform="matrix(-0.897224 0.441575 0.441575 0.897224 126.805 47.4056)" fill="#7551B0"/>
<path d="M101.981 104.081C113.141 107.867 128.088 105.475 134.637 98.7118C141.187 91.9483 140.941 84.4305 125.698 79.5881C114.538 75.8024 100.182 78.2164 93.6321 84.9799C87.0826 91.7435 90.8204 100.295 101.981 104.081Z" fill="#7551B0"/>
</svg>
