<svg width="247" height="161" viewBox="0 0 247 161" fill="none" xmlns="http://www.w3.org/2000/svg">
<rect x="156.843" y="21" width="42.3952" height="93.5188" rx="21.1976" transform="rotate(9.89017 156.843 21)" fill="#7551B0"/>
<ellipse cx="192.554" cy="102.298" rx="49.2532" ry="29.3026" transform="rotate(9.89017 192.554 102.298)" fill="#7551B0"/>
<ellipse cx="201.932" cy="95.8714" rx="32.1582" ry="19.1321" transform="rotate(13.8042 201.932 95.8714)" fill="#7551B0"/>
<ellipse cx="153.223" cy="48.1655" rx="11.5161" ry="7.58433" transform="rotate(7.84484 153.223 48.1655)" fill="#7551B0"/>
<ellipse cx="151.086" cy="48.2039" rx="6.19384" ry="2.29335" transform="rotate(7.84484 151.086 48.2039)" fill="#7551B0"/>
<ellipse cx="180.993" cy="44.068" rx="7.16978" ry="9.35188" transform="rotate(4.51814 180.993 44.068)" fill="#7551B0"/>
<ellipse cx="183.331" cy="42.5342" rx="4.44945" ry="5.39092" transform="rotate(7.84484 183.331 42.5342)" fill="#7551B0"/>
<path d="M169.489 127.528C172.018 127.212 173.765 129.994 172.381 132.134L165.426 142.887C164.235 144.73 161.533 144.711 160.366 142.853L154.614 133.688C153.447 131.83 154.605 129.389 156.782 129.117L169.489 127.528Z" fill="#7551B0"/>
<path d="M198.829 136.208C198.752 133.66 201.686 132.183 203.686 133.763L213.737 141.697C215.46 143.057 215.187 145.745 213.228 146.732L203.563 151.597C201.603 152.584 199.281 151.201 199.215 149.008L198.829 136.208Z" fill="#7551B0"/>
<path d="M83.025 2.92919C84.5294 1.31144 87.0604 1.21955 88.6781 2.72394L128.011 39.3011C129.629 40.8055 129.721 43.3365 128.217 44.9542L77.6503 99.3309C76.1459 100.949 73.6149 101.041 71.9972 99.5361L29.7347 60.2351L83.025 2.92919Z" fill="#7551B0"/>
<rect x="43.8054" y="45.1284" width="13.8781" height="64.3266" transform="rotate(42.9206 43.8054 45.1284)" fill="#7551B0"/>
<circle cx="87.3217" cy="14.1284" r="5" fill="#994ADF"/>
</svg>
