<svg width="233" height="298" viewBox="0 0 233 298" fill="none" xmlns="http://www.w3.org/2000/svg">
<ellipse cx="58.2108" cy="123.73" rx="74.1472" ry="34.1096" transform="rotate(69.2059 58.2108 123.73)" fill="#732AB2"/>
<path d="M86.6212 43.9777C93.7639 19.6895 119.244 5.79031 143.532 12.933V12.933C167.82 20.0757 181.719 45.5555 174.576 69.8437L132.721 212.169L44.766 186.302L86.6212 43.9777Z" fill="#8423D9"/>
<ellipse cx="129.14" cy="190.187" rx="84.533" ry="59.0815" transform="rotate(4.33764 129.14 190.187)" fill="#8423D9"/>
<ellipse cx="162.234" cy="191.5" rx="66.7256" ry="48.6929" transform="rotate(5.06818 162.234 191.5)" fill="#732AB2"/>
<ellipse cx="137.786" cy="69.4753" rx="12.0156" ry="18.2638" transform="rotate(12.587 137.786 69.4753)" fill="white"/>
<ellipse cx="95.2865" cy="60.7751" rx="9.51038" ry="16.8032" transform="rotate(12.587 95.2865 60.7751)" fill="white"/>
<ellipse cx="97.2986" cy="60.8132" rx="7.03755" ry="12.7991" transform="rotate(8.55621 97.2986 60.8132)" fill="#5A2886"/>
<ellipse cx="141.625" cy="70.4558" rx="7.42201" ry="13.4983" transform="rotate(11.3503 141.625 70.4558)" fill="#5A2886"/>
<ellipse cx="97.567" cy="102.381" rx="23.5506" ry="13.9381" transform="rotate(4.86238 97.567 102.381)" fill="#F7AE23"/>
<ellipse cx="85.2032" cy="103.177" rx="9.99812" ry="5.27584" transform="rotate(13.3856 85.2032 103.177)" fill="#88631E"/>
<path d="M64.8898 241.882L62.4114 265.493L41.3984 245.309L64.8898 241.882Z" fill="#F7AE23"/>
<path d="M135.763 258.169L156.437 282.238L124.971 288.006L135.763 258.169Z" fill="#F7AE23"/>
</svg>
