<svg width="213" height="357" viewBox="0 0 213 357" fill="none" xmlns="http://www.w3.org/2000/svg">
<path d="M177.453 356.391C166.516 356.391 161.047 350.661 161.047 339.203C161.047 335.036 162.87 331.781 166.516 329.438C170.161 326.833 174.328 324.88 179.016 323.578C183.703 322.016 187.479 320.844 190.344 320.062C202.583 316.938 214.562 313.161 226.281 308.734C238 304.307 248.547 298.578 257.922 291.547C267.297 284.516 274.719 275.922 280.188 265.766C285.917 255.349 288.781 242.849 288.781 228.266C288.781 211.859 284.875 197.667 277.062 185.688C269.25 173.708 258.182 163.943 243.859 156.391C237.87 168.63 230.188 182.172 220.812 197.016C211.438 211.599 200.76 226.182 188.781 240.766C176.802 255.349 163.911 268.76 150.109 281C136.307 292.979 121.854 302.615 106.75 309.906C91.9062 317.198 76.9323 320.844 61.8281 320.844C49.0677 320.844 38.1302 317.589 29.0156 311.078C19.901 304.568 12.8698 296.104 7.92188 285.688C3.23438 275.271 0.890625 264.073 0.890625 252.094C0.890625 230.74 5.44792 211.599 14.5625 194.672C23.6771 177.745 35.9167 163.161 51.2812 150.922C66.9062 138.682 84.224 129.177 103.234 122.406C103.755 107.042 104.536 92.0677 105.578 77.4844H28.2344C22.5052 77.4844 17.5573 76.3125 13.3906 73.9688C9.48438 71.625 7.53125 67.1979 7.53125 60.6875C7.53125 54.4375 9.61458 50.1406 13.7812 47.7969C17.9479 45.4531 22.7656 44.2812 28.2344 44.2812H107.531C107.792 39.0729 108.052 33.0833 108.312 26.3125C108.833 19.5417 110.526 13.5521 113.391 8.34375C116.255 3.13542 121.203 0.53125 128.234 0.53125C133.443 0.53125 137.479 1.70312 140.344 4.04688C143.469 6.39062 145.031 10.2969 145.031 15.7656C145.031 20.1927 144.641 25.0104 143.859 30.2188C143.078 35.1667 142.427 39.8542 141.906 44.2812H298.547C304.536 44.2812 309.354 45.4531 313 47.7969C316.906 50.1406 318.859 54.5677 318.859 61.0781C318.859 67.3281 316.906 71.625 313 73.9688C309.094 76.3125 304.276 77.4844 298.547 77.4844H139.172C138.911 77.7448 138.651 79.5677 138.391 82.9531C138.13 86.3385 137.87 90.2448 137.609 94.6719C137.609 99.099 137.479 103.266 137.219 107.172C136.958 110.818 136.828 113.031 136.828 113.812C143.339 112.771 149.849 111.99 156.359 111.469C163.13 110.948 169.771 110.688 176.281 110.688C195.031 110.688 213.13 112.901 230.578 117.328C248.286 121.755 264.172 128.656 278.234 138.031C292.297 147.406 303.495 159.646 311.828 174.75C320.161 189.594 324.328 207.562 324.328 228.656C324.328 253.656 318.078 275.01 305.578 292.719C293.339 310.167 276.281 324.49 254.406 335.688C242.688 341.677 230.188 346.625 216.906 350.531C203.885 354.438 190.734 356.391 177.453 356.391ZM142.688 247.406C158.052 232.823 171.724 216.938 183.703 199.75C195.943 182.302 206.75 164.073 216.125 145.062C202.323 141.417 188.781 139.594 175.5 139.594C168.99 139.594 162.349 139.984 155.578 140.766C149.068 141.547 142.557 142.589 136.047 143.891C136.047 161.339 136.698 178.656 138 195.844C139.302 213.031 140.865 230.219 142.688 247.406ZM64.5625 288.812C72.8958 288.812 81.3594 286.99 89.9531 283.344C98.5469 279.438 106.229 275.401 113 271.234C109.354 252.224 106.75 232.953 105.188 213.422C103.885 193.63 102.974 174.099 102.453 154.828C81.8802 164.464 65.3438 177.094 52.8438 192.719C40.3438 208.344 34.0938 228.005 34.0938 251.703C34.0938 262.12 36.3073 270.974 40.7344 278.266C45.1615 285.297 53.1042 288.812 64.5625 288.812Z" fill="#CBCBCB"/>
</svg>
